<?xml version="1.0" encoding="utf-8"?>
<svg version="1.1" id="Layer_1" xmlns="http://www.w3.org/2000/svg" xmlns:xlink="http://www.w3.org/1999/xlink" x="0px" y="0px"
	 width="80px" height="80px" viewBox="0 0 80 80" enable-background="new 0 0 80 80" xml:space="preserve">


<path fill="#434C5C" d="M72.014,73.703H7.986c-2.161,0-4.097-1.117-5.177-2.989c-1.081-1.871-1.081-4.106,0-5.979L34.822,9.286
	C35.903,7.414,37.838,6.297,40,6.297c2.161,0,4.097,1.117,5.178,2.989l32.014,55.449c1.081,1.872,1.081,4.106,0.001,5.979
	C76.111,72.586,74.176,73.703,72.014,73.703z M40,8.297c-1.438,0-2.727,0.743-3.445,1.989L4.541,65.735
	c-0.719,1.246-0.719,2.733,0,3.979c0.719,1.246,2.007,1.989,3.445,1.989h64.028c1.438,0,2.728-0.744,3.446-1.989
	c0.719-1.246,0.719-2.732-0.001-3.979L43.445,10.286C42.727,9.04,41.438,8.297,40,8.297z M43.385,60.778c0,4.284-6.53,4.284-6.53,0
	C36.855,56.451,43.385,56.451,43.385,60.778z M45.152,31.891l-1.837,18.669c-0.125,1.267-1.123,2.229-2.314,2.229h-1.628
	c-1.191,0-2.19-0.962-2.314-2.229l-1.837-18.669c-0.145-1.47,0.933-2.75,2.314-2.75h5.302
	C44.219,29.142,45.297,30.422,45.152,31.891z"/>
<path fill="#F9E199" d="M75.459,65.735L43.445,10.286C42.727,9.04,41.438,8.297,40,8.297s-2.727,0.743-3.445,1.989L4.541,65.735
	c-0.719,1.246-0.719,2.733,0,3.979c0.719,1.246,2.007,1.989,3.445,1.989h64.028c1.438,0,2.728-0.744,3.446-1.989
	C76.179,68.468,76.179,66.981,75.459,65.735z M36.855,60.778c0-4.327,6.53-4.327,6.53,0C43.385,65.062,36.855,65.062,36.855,60.778z
	 M43.315,50.561c-0.125,1.267-1.123,2.229-2.314,2.229h-1.628c-1.191,0-2.19-0.962-2.314-2.229l-1.837-18.669
	c-0.145-1.47,0.933-2.75,2.314-2.75h5.302c1.382,0,2.459,1.28,2.314,2.75L43.315,50.561z"/>
<path fill="#FFFFFF" d="M78.924,63.735L46.91,8.286C45.467,5.788,42.884,4.297,40,4.297c-2.885,0-5.468,1.491-6.91,3.989
	L1.076,63.735c-1.442,2.499-1.442,5.481,0,7.979c1.442,2.498,4.024,3.989,6.909,3.989h64.028c2.885,0,5.468-1.491,6.911-3.99
	C80.366,69.215,80.365,66.232,78.924,63.735z M77.192,70.714c-1.081,1.872-3.017,2.989-5.179,2.989H7.986
	c-2.161,0-4.097-1.117-5.177-2.989c-1.081-1.871-1.081-4.106,0-5.979L34.822,9.286C35.903,7.414,37.838,6.297,40,6.297
	c2.161,0,4.097,1.117,5.178,2.989l32.014,55.449C78.272,66.607,78.272,68.842,77.192,70.714z"/>
</svg>
