<?xml version="1.0" encoding="utf-8"?>
<!-- Generator: Adobe Illustrator 15.0.0, SVG Export Plug-In . SVG Version: 6.00 Build 0)  -->

<svg version="1.1" id="Layer_1" xmlns="http://www.w3.org/2000/svg" xmlns:xlink="http://www.w3.org/1999/xlink" x="0px" y="0px"
	 width="80px" height="80px" viewBox="0 0 80 80" enable-background="new 0 0 80 80" xml:space="preserve">
<g>
	<g>
		<g>
			<g>
				<path fill="#3498DB" d="M57.8,68.4V6.4c0-3.6-1.4-5-5.1-5H15.9L3.8,14.1v54.3c0,3.7,1.4,5,5.1,5h43.9
					C56.4,73.4,57.8,72,57.8,68.4z"/>
			</g>
			<polygon fill="#DFDFDF" points="15.9,14.1 3.8,14.1 15.9,1.4 			"/>
			<polygon fill="#1A2A57" points="15.9,1.4 28,1.4 15.9,14.1 			"/>
		</g>
		<g>
			<rect x="13.3" y="22.1" fill="#FFFFFF" width="34.9" height="3.9"/>
			<rect x="13.3" y="32.2" fill="#FFFFFF" width="34.9" height="3.9"/>
			<rect x="13.3" y="41.6" fill="#FFFFFF" width="34.9" height="3.9"/>
			<rect x="13.3" y="52.3" fill="#FFFFFF" width="15.1" height="3.9"/>
		</g>
	</g>
	<g>
		<g>
			<path fill="#FFFFFF" d="M55.3,36.6c-11.6,0-21,9.4-21,21c0,11.6,9.4,21,21,21c11.6,0,21-9.4,21-21C76.2,46,66.8,36.6,55.3,36.6z"
				/>
		</g>
		<g>
			<path fill="none" stroke="#3E5466" stroke-width="2" stroke-miterlimit="10" d="M55.3,36.6c-11.6,0-21,9.4-21,21
				c0,11.6,9.4,21,21,21c11.6,0,21-9.4,21-21C76.2,46,66.8,36.6,55.3,36.6z"/>
		</g>
	</g>
	<g>
		<g>
			<g>
				<path fill="#C0392B" d="M67.4,63.2c-1.3-2.2-3.9-3.9-7.1-4.8c-1.9,2.7-4,3-5.2,3c-1.3,0-3.3-0.4-5.1-2.9
					c-3.1,0.9-5.7,2.7-6.9,4.9c-1,0.8-1.8,2.7-1.3,3.6c0.1,0.2,0.2,0.4,0.4,0.6c0,0.2,0.1,0.5,0.1,0.7c1.4,2.1,5.5,3.7,10.5,4.1
					l4.5,0c5.4-0.4,9.6-2.2,10.9-4.5c0-0.1,0-0.1,0-0.2c0-0.1,0.1-0.1,0.1-0.2C69.3,66.4,68.5,64.1,67.4,63.2z"/>
			</g>
		</g>
		<g>
			<path fill="#E5B451" d="M62.2,49.8c0,4.4-3.5,9.6-6.9,9.6c-3.4,0-6.9-5.2-6.9-9.6s3.5-7.3,6.9-7.3C58.7,42.5,62.2,45.4,62.2,49.8
				z"/>
			<g>
				<polygon fill-rule="evenodd" clip-rule="evenodd" fill="#2C3E50" points="55.8,50.5 44.9,45.8 54.9,40.4 65.6,45.3 				"/>
				<polygon fill-rule="evenodd" clip-rule="evenodd" fill="#C0392B" points="48,55.4 46,55.4 47.1,46 47.5,46 				"/>
			</g>
		</g>
	</g>
</g>
</svg>
