<?xml version="1.0" encoding="utf-8"?>
<!-- Generator: Adobe Illustrator 15.0.0, SVG Export Plug-In . SVG Version: 6.00 Build 0)  -->

<svg version="1.1" id="Layer_1" xmlns="http://www.w3.org/2000/svg" xmlns:xlink="http://www.w3.org/1999/xlink" x="0px" y="0px"
	 width="80px" height="80px" viewBox="0 0 80 80" enable-background="new 0 0 80 80" xml:space="preserve">
<g>
	<path fill="#BDC3C7" d="M73.5,66.9H4.1c-0.9,0-1.6-0.7-1.6-1.6s0.7-1.6,1.6-1.6h69.4c0.9,0,1.6,0.7,1.6,1.6S74.4,66.9,73.5,66.9z
		 M26.2,51.1c0.9,0,1.6,0.7,1.6,1.6c0,0.9-0.7,1.6-1.6,1.6H13.5c-0.9,0-1.6-0.7-1.6-1.6c0-0.9,0.7-1.6,1.6-1.6h1.6V30.6h-1.6
		c-0.9,0-1.6-0.7-1.6-1.6c0-0.9,0.7-1.6,1.6-1.6h12.6c0.9,0,1.6,0.7,1.6,1.6c0,0.9-0.7,1.6-1.6,1.6h-1.6v20.5H26.2z M21.4,30.6h-3.2
		v20.5h3.2V30.6z M45.1,51.1c0.9,0,1.6,0.7,1.6,1.6c0,0.9-0.7,1.6-1.6,1.6H32.5c-0.9,0-1.6-0.7-1.6-1.6c0-0.9,0.7-1.6,1.6-1.6h1.6
		V30.6h-1.6c-0.9,0-1.6-0.7-1.6-1.6c0-0.9,0.7-1.6,1.6-1.6h12.6c0.9,0,1.6,0.7,1.6,1.6c0,0.9-0.7,1.6-1.6,1.6h-1.6v20.5H45.1z
		 M40.4,30.6h-3.2v20.5h3.2V30.6z M70.3,59c0,0.9-0.7,1.6-1.6,1.6h-60c-0.9,0-1.6-0.7-1.6-1.6s0.7-1.6,1.6-1.6h60
		C69.6,57.4,70.3,58.1,70.3,59z M64,51.1c0.9,0,1.6,0.7,1.6,1.6c0,0.9-0.7,1.6-1.6,1.6H51.4c-0.9,0-1.6-0.7-1.6-1.6
		c0-0.9,0.7-1.6,1.6-1.6H53V30.6h-1.6c-0.9,0-1.6-0.7-1.6-1.6c0-0.9,0.7-1.6,1.6-1.6H64c0.9,0,1.6,0.7,1.6,1.6
		c0,0.9-0.7,1.6-1.6,1.6h-1.6v20.5H64z M59.3,30.6h-3.2v20.5h3.2V30.6z M5.7,21.1l33.1-18l33.1,18v3.2H5.7V21.1z M64.9,21.1
		L38.8,7.6L12.6,21.1H64.9z M22,52h-6V29h6V52z M41,52h-6V29h6V52z M62,52h-7V29h7V52z M69.3,21.6l-57.9,0.2L38.9,5.6l13.8,6.9
		L69.3,21.6z"/>
	<g opacity="0.5">
		<g>
			<path fill="#F1C40F" d="M65.3,53.2c0,0.5-0.4,0.9-0.9,0.9h-9.2c-0.5,0-0.9-0.4-0.9-0.9v-1.5c0-0.5,0.4-0.9,0.9-0.9h9.2
				c0.5,0,0.9,0.4,0.9,0.9V53.2z"/>
			<path opacity="0.5" fill="#F39C12" d="M64.9,53.5c0,0.2-0.1,0.3-0.3,0.3h-9.3c-0.2,0-0.3-0.1-0.3-0.3l0,0c0-0.2,0.1-0.3,0.3-0.3
				h9.3C64.8,53.2,64.9,53.3,64.9,53.5L64.9,53.5z"/>
			<path fill="#F7D752" d="M55.2,53.2v-1.4c0-0.4,0.3-0.7,0.8-0.7h8.8c-0.1,0-0.2-0.1-0.3-0.1h-9.1c-0.4,0-0.8,0.3-0.8,0.7v1.4
				c0,0.4,0.4,0.7,0.8,0.7h0.3C55.4,53.8,55.2,53.5,55.2,53.2z"/>
		</g>
		<g>
			<path fill="#F1C40F" d="M65.3,56.8c0,0.5-0.4,0.9-0.9,0.9h-9.2c-0.5,0-0.9-0.4-0.9-0.9v-1.5c0-0.5,0.4-0.9,0.9-0.9h9.2
				c0.5,0,0.9,0.4,0.9,0.9V56.8z"/>
			<path opacity="0.5" fill="#F39C12" d="M64.9,57.1c0,0.2-0.1,0.3-0.3,0.3h-9.3c-0.2,0-0.3-0.1-0.3-0.3l0,0c0-0.2,0.1-0.3,0.3-0.3
				h9.3C64.8,56.8,64.9,56.9,64.9,57.1L64.9,57.1z"/>
			<path fill="#F7D752" d="M55.2,56.8v-1.4c0-0.4,0.3-0.7,0.8-0.7h8.8c-0.1,0-0.2-0.1-0.3-0.1h-9.1c-0.4,0-0.8,0.3-0.8,0.7v1.4
				c0,0.4,0.4,0.8,0.8,0.8h0.3C55.4,57.3,55.2,57.1,55.2,56.8z"/>
		</g>
		<g>
			<path fill="#F1C40F" d="M65.3,60.4c0,0.5-0.4,0.9-0.9,0.9h-9.2c-0.5,0-0.9-0.4-0.9-0.9v-1.5c0-0.5,0.4-0.9,0.9-0.9h9.2
				c0.5,0,0.9,0.4,0.9,0.9V60.4z"/>
			<path opacity="0.5" fill="#F39C12" d="M64.9,60.7c0,0.2-0.1,0.3-0.3,0.3h-9.3c-0.2,0-0.3-0.1-0.3-0.3l0,0c0-0.2,0.1-0.3,0.3-0.3
				h9.3C64.8,60.4,64.9,60.5,64.9,60.7L64.9,60.7z"/>
			<path fill="#F7D752" d="M55.2,60.4V59c0-0.4,0.3-0.8,0.8-0.8h8.8c-0.1,0-0.2-0.1-0.3-0.1h-9.1c-0.4,0-0.8,0.3-0.8,0.7v1.4
				c0,0.4,0.4,0.7,0.8,0.7h0.3C55.4,60.9,55.2,60.7,55.2,60.4z"/>
		</g>
		<g>
			<path fill="#F1C40F" d="M65.3,64c0,0.5-0.4,0.9-0.9,0.9h-9.2c-0.5,0-0.9-0.4-0.9-0.9v-1.5c0-0.5,0.4-0.9,0.9-0.9h9.2
				c0.5,0,0.9,0.4,0.9,0.9V64z"/>
			<path opacity="0.5" fill="#F39C12" d="M64.9,64.3c0,0.2-0.1,0.3-0.3,0.3h-9.3c-0.2,0-0.3-0.1-0.3-0.3l0,0c0-0.2,0.1-0.3,0.3-0.3
				h9.3C64.8,64,64.9,64.1,64.9,64.3L64.9,64.3z"/>
			<path fill="#F7D752" d="M55.2,64v-1.4c0-0.4,0.3-0.7,0.8-0.7h8.8c-0.1,0-0.2-0.1-0.3-0.1h-9.1c-0.4,0-0.8,0.3-0.8,0.7v1.4
				c0,0.4,0.4,0.7,0.8,0.7h0.3C55.4,64.5,55.2,64.3,55.2,64z"/>
		</g>
		<g>
			<path fill="#F1C40F" d="M65.3,67.6c0,0.5-0.4,0.9-0.9,0.9h-9.2c-0.5,0-0.9-0.4-0.9-0.9V66c0-0.5,0.4-0.9,0.9-0.9h9.2
				c0.5,0,0.9,0.4,0.9,0.9V67.6z"/>
			<path opacity="0.5" fill="#F39C12" d="M64.9,67.9c0,0.2-0.1,0.3-0.3,0.3h-9.3c-0.2,0-0.3-0.1-0.3-0.3l0,0c0-0.2,0.1-0.3,0.3-0.3
				h9.3C64.8,67.5,64.9,67.7,64.9,67.9L64.9,67.9z"/>
			<path fill="#F7D752" d="M55.2,67.5v-1.4c0-0.4,0.3-0.7,0.8-0.7h8.8c-0.1,0-0.2-0.1-0.3-0.1h-9.1c-0.4,0-0.8,0.3-0.8,0.7v1.4
				c0,0.4,0.4,0.8,0.8,0.8h0.3C55.4,68.1,55.2,67.8,55.2,67.5z"/>
		</g>
		<g>
			<path fill="#F1C40F" d="M65.3,71.2c0,0.5-0.4,0.9-0.9,0.9h-9.2c-0.5,0-0.9-0.4-0.9-0.9v-1.5c0-0.5,0.4-0.9,0.9-0.9h9.2
				c0.5,0,0.9,0.4,0.9,0.9V71.2z"/>
			<path opacity="0.5" fill="#F39C12" d="M64.9,71.5c0,0.2-0.1,0.3-0.3,0.3h-9.3c-0.2,0-0.3-0.1-0.3-0.3l0,0c0-0.2,0.1-0.3,0.3-0.3
				h9.3C64.8,71.1,64.9,71.3,64.9,71.5L64.9,71.5z"/>
			<path fill="#F7D752" d="M55.2,71.1v-1.4c0-0.4,0.3-0.7,0.8-0.7h8.8c-0.1,0-0.2-0.1-0.3-0.1h-9.1c-0.4,0-0.8,0.3-0.8,0.7v1.4
				c0,0.4,0.4,0.7,0.8,0.7h0.3C55.4,71.7,55.2,71.4,55.2,71.1z"/>
		</g>
	</g>
	<g>
		<g>
			<g>
				<path fill="#F39C12" d="M70.3,63.2c0,0.4-0.4,0.7-0.9,0.7h-9.2c-0.5,0-0.9-0.3-0.9-0.7v-1.3c0-0.4,0.4-0.7,0.9-0.7h9.2
					c0.5,0,0.9,0.3,0.9,0.7V63.2L70.3,63.2z"/>
				<path opacity="0.6" fill="#D38411" enable-background="new    " d="M69.8,63.4c0,0.2-0.1,0.3-0.3,0.3h-9.3
					c-0.2,0-0.3-0.1-0.3-0.3l0,0c0-0.1,0.1-0.3,0.3-0.3h9.3C69.7,63.2,69.8,63.3,69.8,63.4L69.8,63.4z"/>
				<path fill="#F7D752" d="M60.1,63.2V62c0-0.3,0.3-0.6,0.8-0.6h8.8c-0.1,0-0.2-0.1-0.3-0.1h-9.1c-0.4,0-0.8,0.3-0.8,0.6v1.2
					c0,0.3,0.4,0.6,0.8,0.6h0.3C60.3,63.6,60.1,63.4,60.1,63.2z"/>
			</g>
			<g>
				<path fill="#F39C12" d="M69.5,66.3c0,0.4-0.4,0.7-0.9,0.7h-9.2c-0.5,0-0.9-0.3-0.9-0.7V65c0-0.4,0.4-0.7,0.9-0.7h9.2
					c0.5,0,0.9,0.3,0.9,0.7V66.3z"/>
				<path opacity="0.6" fill="#D38411" enable-background="new    " d="M69.1,66.6c0,0.2-0.1,0.3-0.3,0.3h-9.3
					c-0.2,0-0.3-0.1-0.3-0.3l0,0c0-0.2,0.1-0.3,0.3-0.3h9.3C68.9,66.3,69.1,66.4,69.1,66.6L69.1,66.6z"/>
				<path fill="#F7D752" d="M59.4,66.3v-1.2c0-0.3,0.4-0.6,0.8-0.6H69c-0.1,0-0.2-0.1-0.3-0.1h-9.1c-0.4,0-0.8,0.3-0.8,0.6v1.2
					c0,0.3,0.4,0.6,0.8,0.6h0.3C59.6,66.8,59.4,66.5,59.4,66.3z"/>
			</g>
			<g>
				<path fill="#F39C12" d="M70.8,69.4c0,0.4-0.4,0.7-0.9,0.7h-9.2c-0.5,0-0.9-0.3-0.9-0.7v-1.3c0-0.4,0.4-0.7,0.9-0.7h9.2
					c0.5,0,0.9,0.3,0.9,0.7V69.4z"/>
				<path opacity="0.6" fill="#D38411" enable-background="new    " d="M70.4,69.7c0,0.2-0.1,0.3-0.3,0.3h-9.3
					c-0.2,0-0.3-0.1-0.3-0.3l0,0c0-0.2,0.1-0.3,0.3-0.3H70C70.2,69.4,70.4,69.5,70.4,69.7L70.4,69.7z"/>
				<path fill="#F7D752" d="M60.6,69.4v-1.2c0-0.3,0.3-0.6,0.8-0.6h8.8c-0.1,0-0.2-0.1-0.3-0.1h-9.1c-0.4,0-0.8,0.3-0.8,0.6v1.2
					c0,0.3,0.4,0.6,0.8,0.6h0.3C60.8,69.9,60.6,69.7,60.6,69.4z"/>
			</g>
			<g>
				<path fill="#F39C12" d="M69.8,72.6c0,0.4-0.4,0.7-0.9,0.7h-9.2c-0.5,0-0.9-0.3-0.9-0.7v-1.3c0-0.4,0.4-0.7,0.9-0.7H69
					c0.5,0,0.9,0.3,0.9,0.7V72.6z"/>
				<path opacity="0.6" fill="#D38411" enable-background="new    " d="M69.4,72.8c0,0.2-0.1,0.3-0.3,0.3h-9.3
					c-0.2,0-0.3-0.1-0.3-0.3l0,0c0-0.2,0.1-0.3,0.3-0.3h9.3C69.3,72.5,69.4,72.7,69.4,72.8L69.4,72.8z"/>
				<path fill="#F7D752" d="M59.7,72.5v-1.2c0-0.3,0.4-0.6,0.8-0.6h8.8c-0.1,0-0.2-0.1-0.3-0.1h-9.1c-0.4,0-0.8,0.3-0.8,0.6v1.2
					c0,0.3,0.4,0.6,0.8,0.6h0.3C59.9,73,59.7,72.8,59.7,72.5z"/>
			</g>
		</g>
		<g>
			<path fill="#F39C12" d="M76,74.9c-0.4,0.2-0.8,0-1-0.5l-4.1-8.3c-0.2-0.4-0.1-0.9,0.3-1.1l1.1-0.6c0.4-0.2,0.8,0,1,0.5l4.1,8.3
				c0.2,0.4,0.1,0.9-0.3,1.1L76,74.9z"/>
			<path opacity="0.6" fill="#D38411" enable-background="new    " d="M75.6,74.6c-0.1,0.1-0.3,0-0.4-0.2L71,66.2
				c-0.1-0.2,0-0.3,0.1-0.4l0,0c0.1-0.1,0.3,0,0.4,0.2l4.1,8.3C75.8,74.4,75.7,74.6,75.6,74.6L75.6,74.6z"/>
			<path fill="#F7D752" d="M71.5,65.8l1-0.5c0.3-0.2,0.7,0,0.9,0.4l3.9,7.9c0-0.1,0-0.2-0.1-0.3l-4.1-8.1c-0.2-0.4-0.6-0.6-0.9-0.4
				l-1,0.5c-0.3,0.2-0.4,0.6-0.2,1l0.1,0.2C71.2,66.2,71.3,65.9,71.5,65.8z"/>
		</g>
		<g>
			<circle fill="#BF830C" cx="68.5" cy="71.4" r="4.8"/>
			<circle fill="#F1C40F" cx="69.1" cy="71.1" r="4.8"/>
			<path fill="#F7D752" d="M66.1,70.9c0-1.7,0.9-3.2,2.2-3.8c0,0,0,0,0,0c-2,0-3.6,1.8-3.6,4.1s1.6,4.1,3.6,4.1c0.5,0,1-0.1,1.4-0.3
				C67.7,75,66.1,73.2,66.1,70.9z"/>
		</g>
	</g>
	<g>
		<g>
			<path fill="#F1C40F" d="M32.9,60.1c0,0.4-0.4,0.8-1,0.8H21.7c-0.5,0-1-0.4-1-0.8v-1.4c0-0.4,0.4-0.8,1-0.8h10.2
				c0.5,0,1,0.4,1,0.8V60.1z"/>
			<path opacity="0.5" fill="#F39C12" d="M32.4,60.4c0,0.2-0.2,0.3-0.4,0.3H21.8c-0.2,0-0.4-0.1-0.4-0.3l0,0c0-0.2,0.2-0.3,0.4-0.3
				h10.3C32.3,60.1,32.4,60.2,32.4,60.4L32.4,60.4z"/>
			<path fill="#F7D752" d="M21.7,60.1v-1.3c0-0.4,0.4-0.7,0.9-0.7h9.8c-0.1,0-0.2-0.1-0.4-0.1H21.9c-0.5,0-0.9,0.3-0.9,0.7V60
				c0,0.4,0.4,0.7,0.9,0.7h0.3C21.9,60.6,21.7,60.3,21.7,60.1z"/>
		</g>
		<g>
			<path fill="#F1C40F" d="M32.9,63.4c0,0.4-0.4,0.8-1,0.8H21.7c-0.5,0-1-0.4-1-0.8V62c0-0.4,0.4-0.8,1-0.8h10.2c0.5,0,1,0.4,1,0.8
				V63.4z"/>
			<path opacity="0.5" fill="#F39C12" d="M32.4,63.7c0,0.2-0.2,0.3-0.4,0.3H21.8c-0.2,0-0.4-0.1-0.4-0.3l0,0c0-0.2,0.2-0.3,0.4-0.3
				h10.3C32.3,63.4,32.4,63.5,32.4,63.7L32.4,63.7z"/>
			<path fill="#F7D752" d="M21.7,63.4v-1.3c0-0.4,0.4-0.7,0.9-0.7h9.8c-0.1,0-0.2-0.1-0.4-0.1H21.9c-0.5,0-0.9,0.3-0.9,0.7v1.3
				c0,0.4,0.4,0.7,0.9,0.7h0.3C21.9,63.9,21.7,63.6,21.7,63.4z"/>
		</g>
		<g>
			<path fill="#F1C40F" d="M32.9,66.7c0,0.4-0.4,0.8-1,0.8H21.7c-0.5,0-1-0.4-1-0.8v-1.4c0-0.4,0.4-0.8,1-0.8h10.2
				c0.5,0,1,0.4,1,0.8V66.7z"/>
			<path opacity="0.5" fill="#F39C12" d="M32.4,67c0,0.2-0.2,0.3-0.4,0.3H21.8c-0.2,0-0.4-0.1-0.4-0.3l0,0c0-0.2,0.2-0.3,0.4-0.3
				h10.3C32.3,66.7,32.4,66.8,32.4,67L32.4,67z"/>
			<path fill="#F7D752" d="M21.7,66.7v-1.3c0-0.4,0.4-0.7,0.9-0.7h9.8c-0.1,0-0.2-0.1-0.4-0.1H21.9c-0.5,0-0.9,0.3-0.9,0.7v1.3
				c0,0.4,0.4,0.7,0.9,0.7h0.3C21.9,67.2,21.7,67,21.7,66.7z"/>
		</g>
		<g>
			<path fill="#F1C40F" d="M32.9,70c0,0.4-0.4,0.8-1,0.8H21.7c-0.5,0-1-0.4-1-0.8v-1.4c0-0.4,0.4-0.8,1-0.8h10.2c0.5,0,1,0.4,1,0.8
				V70z"/>
			<path opacity="0.5" fill="#F39C12" d="M32.4,70.3c0,0.2-0.2,0.3-0.4,0.3H21.8c-0.2,0-0.4-0.1-0.4-0.3l0,0c0-0.2,0.2-0.3,0.4-0.3
				h10.3C32.3,70,32.4,70.1,32.4,70.3L32.4,70.3z"/>
			<path fill="#F7D752" d="M21.7,70v-1.3c0-0.4,0.4-0.7,0.9-0.7h9.8c-0.1,0-0.2-0.1-0.4-0.1H21.9c-0.5,0-0.9,0.3-0.9,0.7v1.3
				c0,0.4,0.4,0.7,0.9,0.7h0.3C21.9,70.5,21.7,70.3,21.7,70z"/>
		</g>
		<g>
			<path fill="#F1C40F" d="M32.9,73.3c0,0.4-0.4,0.8-1,0.8H21.7c-0.5,0-1-0.4-1-0.8v-1.4c0-0.4,0.4-0.8,1-0.8h10.2
				c0.5,0,1,0.4,1,0.8V73.3z"/>
			<path opacity="0.5" fill="#F39C12" d="M32.4,73.6c0,0.2-0.2,0.3-0.4,0.3H21.8c-0.2,0-0.4-0.1-0.4-0.3l0,0c0-0.2,0.2-0.3,0.4-0.3
				h10.3C32.3,73.3,32.4,73.4,32.4,73.6L32.4,73.6z"/>
			<path fill="#F7D752" d="M21.7,73.3V72c0-0.4,0.4-0.7,0.9-0.7h9.8c-0.1,0-0.2-0.1-0.4-0.1H21.9c-0.5,0-0.9,0.3-0.9,0.7v1.3
				c0,0.4,0.4,0.7,0.9,0.7h0.3C21.9,73.8,21.7,73.6,21.7,73.3z"/>
		</g>
	</g>
	<g>
		<g>
			<g>
				<path fill-rule="evenodd" clip-rule="evenodd" fill="#E5B451" d="M49.9,55.3c-1.6-0.7-4.2,1.9-6.1,1.9c-2.2,0-4.1-2.6-5.8-1.7
					c-6.9,3.9-8.6,8.6-8.6,13.3c0,6.1,4.8,8.1,15,8.1s15.3-2.8,15.3-8.9C59.8,63,55.4,57.7,49.9,55.3z"/>
			</g>
		</g>
		<path fill-rule="evenodd" clip-rule="evenodd" fill="#AD7F34" d="M37.6,49c0,0,1.9,5.6,4.4,5.6c2.5,0,4.5,0.1,5.1-0.9
			c0.6-1,0.3-3.9,1.1-5.1c0.8-1.2,1.2-3,0-3.1c-1.2-0.1-3.2,2.1-3.4,1.1c-0.2-1-0.2-2.5-1.6-2.5c-1.4,0-1.6,2.8-2.6,2.9
			c-0.9,0.1-2.1-0.8-2.9-0.1S37.6,49,37.6,49z"/>
		<g>
			<g>
				<path fill-rule="evenodd" clip-rule="evenodd" fill="#AD7F34" d="M29.5,69.6c0-0.3,0-0.5,0-0.8C29.5,66.8,29,67.8,29.5,69.6z
					 M49.9,55.3C48.3,54.6,68.3,67,50,75.2c-2,0.9-6.5,1.3-10.7,1.1c-6.9-0.3-9.1-4.3-9.7-6.7c0.4,5.5,5.2,7.3,15,7.3
					c10.2,0,15.3-2.8,15.3-8.9C59.8,63,55.4,57.7,49.9,55.3z"/>
			</g>
		</g>
	</g>
</g>
</svg>
