<?xml version="1.0" encoding="utf-8"?>
<!-- Generator: Adobe Illustrator 15.0.0, SVG Export Plug-In . SVG Version: 6.00 Build 0)  -->

<svg version="1.1" id="Layer_1" xmlns="http://www.w3.org/2000/svg" xmlns:xlink="http://www.w3.org/1999/xlink" x="0px" y="0px"
	 width="80px" height="80px" viewBox="0 0 80 80" enable-background="new 0 0 80 80" xml:space="preserve">
<g>
	<g>
		<path fill="#63A711" d="M77.5,39.9c0.1,20.2-16.7,36.6-37.4,36.6c-20.7,0-37.5-16.3-37.6-36.4C2.4,19.9,19.2,3.5,39.9,3.5
			C60.6,3.4,77.4,19.7,77.5,39.9z"/>
		<path fill="#FFFFFF" d="M40,77.5c-21.2,0-38.5-16.8-38.5-37.4c0-10,3.9-19.5,11.2-26.6c7.2-7.1,16.9-11,27.2-11
			c21.3,0,38.6,16.8,38.6,37.4c0,10-3.9,19.5-11.2,26.6C60,73.6,50.4,77.5,40,77.5L40,77.5z M40,4.5c-9.8,0-19,3.7-25.9,10.5
			C7.2,21.7,3.5,30.6,3.5,40.1C3.6,59.6,19.9,75.5,40,75.5v1l0.1-1c9.8,0,18.9-3.7,25.8-10.5c6.9-6.7,10.6-15.7,10.6-25.1
			C76.4,20.4,60.1,4.5,40,4.5z"/>
	</g>
	<g>
		<path fill="#47ABE2" d="M39.6,41.2l27.1,24.5c6.7-6.6,10.9-15.7,10.9-25.8C77.4,19.7,60.6,3.4,39.9,3.5c-3,0-5.9,0.4-8.7,1
			L39.6,41.2z"/>
		<path fill="#FFFFFF" d="M66.7,67.1l-28-25.3L30,3.7l1-0.2c2.9-0.7,5.9-1,8.9-1c21.3,0,38.6,16.8,38.6,37.4
			c0,10-3.9,19.4-11.2,26.5L66.7,67.1z M40.5,40.7l26.1,23.6c6.4-6.6,9.9-15.3,9.9-24.4C76.4,20.4,60.1,4.5,40,4.5
			c-2.6,0-5.1,0.3-7.6,0.8L40.5,40.7z"/>
	</g>
	<g>
		<path fill="#F1C40F" d="M39.6,41.2L39.6,41.2l-37,0c0.7,19.6,17.3,35.4,37.6,35.3c10.4,0,19.8-4.2,26.5-10.8L39.6,41.2z"/>
		<path fill="#FFFFFF" d="M40,77.5c-20.9,0-37.8-15.9-38.5-36.3l0-1h38.2l0.3,0.1l0.2,0.2l27.9,25.2l-0.8,0.7
			C60.1,73.6,50.4,77.5,40,77.5L40,77.5z M3.6,42.2C4.8,61,20.6,75.5,40,75.5v1l0.1-1c9.4,0,18.3-3.5,25.1-9.8l-26-23.5H3.6z"/>
	</g>
</g>
</svg>
