<?xml version="1.0" encoding="utf-8"?>
<!-- Generator: Adobe Illustrator 15.0.0, SVG Export Plug-In . SVG Version: 6.00 Build 0)  -->

<svg version="1.1" id="Layer_1" xmlns="http://www.w3.org/2000/svg" xmlns:xlink="http://www.w3.org/1999/xlink" x="0px" y="0px"
	 width="24px" height="24px" viewBox="0 0 24 24" enable-background="new 0 0 24 24" xml:space="preserve">
<path fill="#FFFFFF" d="M18,13.9l-0.2,0.8c-0.3,1.1-0.9,2.1-1.7,2.9c-1.3,1.3-3,2-4.8,2c-1.8,0-3.5-0.7-4.8-2
	C3.9,15,3.9,10.8,6.6,8.1c2-2,5-2.3,7.7-0.9L10.6,10h1.5H17h1V1.8l-2.4,3.4C11.8,2.8,8,3.3,4.8,6.5c-1.7,1.7-2.6,4-2.6,6.3
	c0,2.4,0.9,4.6,2.7,6.3c1.7,1.7,4,2.6,6.4,2.6c2.4,0,4.7-1,6.5-2.7c0.9-0.9,1.5-1.9,2-3.2l0.1-0.3L18,13.9z"/>
</svg>
